<?xml version="1.0" encoding="utf-8"?>
<!-- Generator: Adobe Illustrator 26.0.1, SVG Export Plug-In . SVG Version: 6.00 Build 0)  -->
<svg version="1.1" id="Layer_1" xmlns="http://www.w3.org/2000/svg" xmlns:xlink="http://www.w3.org/1999/xlink" x="0px" y="0px"
	 viewBox="0 0 595.28 841.89" style="enable-background:new 0 0 595.28 841.89;" xml:space="preserve">
<style type="text/css">
	.st0{fill-rule:evenodd;clip-rule:evenodd;fill:#1A94D2;}
</style>
<g>
	
		<sodipodi:namedview  bordercolor="#666666" borderopacity="1" fit-margin-bottom="0" fit-margin-left="0" fit-margin-right="0" fit-margin-top="0" gridtolerance="10" guidetolerance="10" id="namedview4" objecttolerance="10" pagecolor="#ffffff" showgrid="false">
		</sodipodi:namedview>
	<g id="g10_00000049941119631884971610000001414495383211931557_" transform="matrix(1.25,0,0,-1.25,-325.74994,684.8445)">
		<g id="g18_00000040554362819786994220000000826592647958484137_">
			<g id="g20_00000160895335761046667360000003006021050033512120_">
				<g id="g3488_00000104697322585672673280000013124518312333673096_" transform="translate(174.19995,-39.424199)">
					<g id="g3115_00000181052173049186284100000005476729162631215778_">
						<g id="g30_00000055705834434892911350000015404935282566724523_" transform="translate(107.2002,582)">
						</g>
						<g id="g34_00000158007740229644279040000012429076056047931565_" transform="translate(123.5,581.2998)">
						</g>
						<g id="g38_00000031913504148655596450000013317892934318583432_" transform="translate(96.1997,580.5)">
						</g>
						<g id="g42_00000053527362953150741410000010261092753413374090_" transform="translate(150,577.5)">
						</g>
						<g id="g46_00000129194353992849633970000011790819837715407038_" transform="translate(139.2002,577.3999)">
						</g>
						<g id="g50_00000068640428550075428180000006311563358840470928_" transform="translate(159.3999,569.2998)">
						</g>
						<g id="g54_00000057133573371589656340000015932721694995301254_" transform="translate(99.3999,560.2998)">
						</g>
						<g id="g58_00000032634812536400948760000005310442468126231428_" transform="translate(105.8999,560)">
						</g>
						<g id="g62_00000072262680426100419610000017919599593727427241_" transform="translate(118.3999,559.5)">
						</g>
						<g id="g66_00000156564332952040124640000011996773976695687342_" transform="translate(111.3999,558.6001)">
						</g>
						<g id="g70_00000049926328974802657850000016615395291964832407_" transform="translate(123.6001,558.3999)">
						</g>
						<g id="g74_00000128463591159757032130000008955439206713652356_" transform="translate(136.2998,555.7002)">
						</g>
						<g id="g78_00000059284216952062439600000003373642699917589131_" transform="translate(124.8003,551.1001)">
							<path id="path80_00000072266624275414204550000010949047694008042423_" class="st0" d="M78.88-267.42l-9.2-10.2l3.4,6.3
								L78.88-267.42z M90.38-262.82c-5.3-5.6-10.8-11.1-17.3-13.4C73.08-276.22,90.38-262.82,90.38-262.82z M77.68-260.13
								c-3.4-6.1-6.5-12.7-11-18C68.88-270.93,73.08-265.33,77.68-260.13 M65.48-259.92c-0.6-4.7-0.2-9.5-1.9-14.2
								C62.58-269.42,64.38-264.62,65.48-259.92 M72.48-259.02c-2.2-5.7-4.6-11.4-7.2-16.8C66.68-269.22,69.78-264.32,72.48-259.02
								 M59.98-258.52c0.1-0.3,0.1-0.6,0.2-1c1.6-5.8,1.8-11.7,1-17.6C59.68-270.92,59.68-264.72,59.98-258.52 M53.48-258.23
								c3.2-5.4,4.7-11.6,4.9-18C56.38-270.23,53.98-264.23,53.48-258.23 M113.48-249.23c-5.3-4.2-9.4-10.5-17-11.3L113.48-249.23z
								 M93.28-241.13l-12-18.3C82.28-251.63,89.48-247.33,93.28-241.13 M104.08-241.02c-5.5-6.3-11.2-12.6-16.8-18.9
								c-1.6-2.5-4.4-3.2-6.9-4.3l22.7,22.3C103.08-241.92,104.08-241.02,104.08-241.02z M50.28-238.02c3-6,6.4-12,6-19.2
								L50.28-238.02z M77.58-237.23c-2.1-8.5-2.5-18.5-8.2-24.2l8.1,23.9C77.48-237.53,77.58-237.23,77.58-237.23z M61.28-236.52
								c2.3-7,2.8-14,1.7-21L61.28-236.52z M40.58-231.23h49.9h36.6v-12.9v-9.5l-40.1-17.8c-7-2.4-13.6-6.7-19.5-10.6l3,3.7
								l-0.1,0.1c-2.3-1.2-4.4-2.6-7-3.6v4.5c0,0,0,0.1-0.1,0.1l-1.7-3.2l-1.6,3.1h-0.1l-0.4-4.1l-4,3.9l-6.2,5.9l7.1-13.2l-4.7-2.2
								v-10.5l10.1-8.1v4v13.2l36.3,15.5l29,12.3v-20.3v-33.6h-15.1h-50h-21.4l-0.1,27.4v36.5l7.5-11.7l8-12.3
								c0.2,0.1-0.2-0.1,0.1,0.1c-3.7,8.2-7.3,16.4-10.9,24.6c-1.5,3.8-3.6,7.3-4.7,11.1v7.6
								C40.48-231.23,40.58-231.23,40.58-231.23z"/>
						</g>
					</g>
					<g id="g82_00000079486593463540668000000009670397528995731122_" transform="translate(328.5,583.1001)">
					</g>
					<g id="g86_00000065048735273275034190000005262879096724276097_" transform="translate(203.3999,582)">
					</g>
					<g id="g90_00000091014819102855653380000007499996327421448600_" transform="translate(327.3003,579.7002)">
						<path id="path92_00000028295793976188104130000012751949499711197880_" class="st0" d="M78.88-267.42c1.7-0.1,3.4-0.8,4.5-2.1
							c5.3-8.2,4-19.7,2.7-29.2c-1.1-5.5-2.5-11.2-6.6-13.8c-2-1.1-4.4-1-6.1,0.1c-3,2-4.1,5.7-4.9,9.7c-1.5,9-0.9,18.2,2.1,27
							c1.2,3.2,2.9,6.2,5.7,7.6C77.28-267.72,78.08-267.62,78.88-267.42 M80.08-264.02c4.3,0.1,8.9-1.2,11.6-4.9
							c4.3-5.7,4.5-14.7,3.5-22c-1.5-9.9-5.4-18.4-12.5-23.4c-4.7-3.1-11.4-3.8-16.3-0.9c-3.7,2.3-5.7,6.5-6.6,11.5
							c-0.1,0.7-0.1,1.4-0.3,2c-0.9,11.4,1.1,24.8,8.7,32.4C71.18-266.32,75.58-264.32,80.08-264.02"/>
					</g>
					<g id="g118_00000146497790813842755730000001515432603893623168_" transform="translate(195.2998,557)">
					</g>
					<g id="g94_00000092426754462332418830000013195939948600439943_" transform="translate(199.6997,579.3003)">
						<path id="path96_00000003803671244059989600000004513333533107023788_" class="st0" d="M78.88-267.42c1.8,0,3.7-0.5,4.9-2
							c1.8-2.3,1.9-6.1,1.3-9c-0.8-3.4-1.6-6.2-3.8-8.3h-6.4l2.1,18.9L78.88-267.42z M74.48-289.73c2.8,0.1,6.4,0,8.4-2.5
							c2.8-3.5,2.7-8.9,2-13.3c-0.6-2.8-1.5-5.1-3.5-6.5c-2-1.3-4.5-0.9-6.6,0.1c-0.9,0.6-1.9,1.1-2.2,2.4
							C73.08-302.93,73.58-296.23,74.48-289.73 M82.58-264.73c3,0.1,6.5-0.1,8.5-2.6c1.5-2.1,1.7-5.6,1.3-8.2
							c-1.2-5.5-4.9-9.4-8.9-11.8v-0.1c2.7-0.4,5.2-1.4,6.9-3.4c2.7-2.9,2.9-7.6,2.2-11.4c-0.9-5.1-3.6-8.8-7.2-11.1
							c-7.5-4.6-16.2-1.1-24.2-2.5l0.2,2.8c1.1,0.2,2.1,0.5,2.8,1.5c2.1,14.3,4.6,29.2,4.2,43.5c-0.5,0.5-1.2,0.7-1.7,0.7l0.2,2.5
							C72.18-265.13,77.28-265.13,82.58-264.73"/>
					</g>
					<g id="g98_00000046316407629968039860000009727093397501815971_" transform="translate(354.8999,567.2998)">
						<path id="path100_00000008835888672953550110000012541200622979959704_" class="st0" d="M78.88-267.42L78.88-267.42
							c3.2-10,6.7-19.4,10.9-27.9c0.6,7.8,2.3,16.1,1,24c-0.3,0.8-1,1.1-1.6,1.2h-0.4l0.2,2.1c3.1-0.3,6.3-0.3,9.4,0l-0.1-2
							c-0.9-0.1-1.7-0.7-2.1-1.6c-1.5-3.7-1.9-7.7-2.5-11.4c-0.6-3.6-1.1-7.1-1.6-10.6c-0.5-3.4-1-6.7-1-10.1c-2,0.3-4.2,0.4-6.2,0
							l-10.6,25.8c-0.7-7.4-2.7-15.7-0.8-22.9c0.5-0.5,1.2-0.6,1.8-0.8l-0.2-2.1c-3.2,0.3-6.5,0.5-9.7,0l0.2,2
							c1.1,0.3,2.2,1.1,2.6,2.2c0.8,2,1.2,4.1,1.6,6.1c0,0.4,0.1,0.7,0.1,1.1c0.6,7.2,3.9,15.1,1.5,21.6c-0.5,0.4-1.1,0.6-1.7,0.6
							l0.2,2C72.68-267.92,76.08-269.02,78.88-267.42"/>
					</g>
					<g id="g102_00000123441124924922364200000017240876672206670007_" transform="translate(276.1001,567)">
						<path id="path104_00000154388490986362221080000011526271718968876475_" class="st0" d="M78.88-267.42
							c0.9-7.9,2.3-15.9,4-23.8c0-0.1,0.1-0.1,0.1-0.1c3.8,7.5,6.9,15.8,10.3,23.9c2.9-1.1,5.9-0.4,8.8-0.4l-0.2-2
							c-0.7,0-1.4-0.4-1.7-1.2c-2.1-9.6-3.2-19.9-3.5-29.6c0.5-0.6,1-0.6,1.7-0.8l-0.1-0.9l-0.2-1c-3.6,0-7.5,0.3-11.3-0.2l0.1,2.1
							l1.7,0.5c3,7.7,2.5,17,3.7,25.4c-4.1-8.9-7.9-18-11.5-27.6l-2.8-0.1l-3.4,18.5l-1.9,9.1h-0.1c-0.4-8.4-3.1-17.1-1.5-25.3
							c0.5-0.4,1.2-0.3,1.8-0.5l-0.3-2c-2.9,0.3-5.8,0.3-8.7,0l0.2,1.9c0.2,0.3,0.5,0.2,0.8,0.3l0.8,0.7c3,9.5,4.8,20.4,4.8,30.2
							l-1.3,0.4l0.3,2.1c2.7,0,5.4-0.4,8.2,0L78.88-267.42z"/>
					</g>
					<g id="g106_00000127035844139498137920000001327324196416498843_" transform="translate(230,566.6001)">
						<path id="path108_00000108307061566312641920000005578302372075515315_" class="st0" d="M78.88-267.42
							c1.8-0.1,3.8,0.3,5.6-0.3c-0.1-3.2-1.3-6.8-1.6-10.2l-1.4-0.1c0.3,1.8,0.4,4.3-0.9,5.6c-1.6,1.7-4.1,2.1-6.3,2.1
							c-0.8-4-1.1-8.6-1.6-12.8c2.8-0.8,5.9-0.6,8.8-0.4l-1.2-2.8c-2.6,0.1-5.3,0.2-7.9-0.3l-1.5-13.5c1.5-0.7,3.4,0,5,0.4
							c3.1,1,5.1,3.3,6.1,6.5l1.3-0.3l-0.1-0.6l-2.5-8.7c-6.2-0.8-13.2,0.5-19.7-0.3l0.2,2c0.7,0.3,1.4,0.3,1.9,0.9
							c2.3,9.3,3.3,19.7,3.2,29.4c-0.3,0.5-1,0.8-1.7,0.9l0.2,2.1C69.28-267.42,74.18-267.82,78.88-267.42"/>
					</g>
					<g id="g110_00000005987254768760406920000009098211367967749269_" transform="translate(245.6001,566.6001)">
					</g>
					<g id="g114_00000021109803928666734070000002017960207061470392_" transform="translate(247.7998,559.1997)">
						<path id="path116_00000001636475953671695780000014357716188389894537_" class="st0" d="M78.88-267.42l1.5-11.7h-5.7
							L78.88-267.42z M76.68-260.02c2.8-0.3,5.7-0.3,8.6,0c1.6-10.8,1.3-23.2,5.3-33.3c0.3-0.1,0.5-0.1,0.7-0.3l-0.2-2
							c-2.9,0.1-5.8,0.4-8.8-0.1h-0.2l-1.2,13.7h-7c-1.1-3.2-2.5-7-2.5-10.6l0.3-0.5l1.6-0.5l-0.1-2l-3.3,0.2l-5.4-0.3l0.1,2
							c1.5,0.4,2.3,1.8,3,3.2c3.2,9,8.3,17.5,10.3,26.8c-0.4,0.7-0.9,1.2-1.5,1.2l0.2,2.5C76.58-260.02,76.68-260.02,76.68-260.02z"
							/>
					</g>
					<g id="g122_00000115486805944309750200000001286417605638817453_" transform="translate(181.6997,525.8003)">
					</g>
					<g id="g130_00000106135474293649825940000001440585964818317206_" transform="translate(283.3999,522.8999)">
					</g>
					<g id="g134_00000011013232857722538050000007899365715828319895_" transform="translate(315.5,522.6997)">
					</g>
					<g id="g3092_00000047773589211296696490000002910279764576004028_">
						<g id="g126_00000077298736794171508970000005128580442557281722_" transform="translate(232.1001,522.6001)">
						</g>
						<g id="g138_00000039851604342644924390000009066150512604276912_" transform="translate(334.5,523.1001)">
						</g>
						<g id="g142_00000059287658927623692050000007067247220890137021_" transform="translate(348.1001,523.1997)">
						</g>
						<g id="g146_00000166664178550228748400000000736445461472554145_" transform="translate(196.3999,522.6997)">
						</g>
						<g id="g150_00000051370565775061993960000001884851727242477967_" transform="translate(213.1001,522.5)">
						</g>
						<g id="g154_00000060749818956810740600000002896023552801110707_" transform="translate(244.8999,522.6997)">
						</g>
						<g id="g158_00000068679673480328916310000015954711489685388719_" transform="translate(262.1001,522.6997)">
						</g>
						<g id="g162_00000061464514896414687370000007392810750404691107_" transform="translate(298.1001,522.6997)">
						</g>
						<g id="g166_00000036933246349026230470000007261305354574130324_" transform="translate(283,520.2002)">
						</g>
						<g id="g170_00000078724789432736206510000015678768838577401231_" transform="translate(315.3999,520)">
							<path id="path172_00000092457172240531933950000008173513008869664150_" class="st0" d="M78.88-267.42l0.7-0.2
								c1.5-1.8,1.2-5,0.8-7.3c-0.2-1.6-0.6-3.1-1.5-3.9c-0.6-0.2-1-0.4-1.4-0.1c-1.1,1.5-1.1,3.5-1.1,5.3c0.1,2.2,0.4,4.9,1.9,6
								C78.58-267.62,78.68-267.52,78.88-267.42 M78.98-264.73c0.9,0,1.8-0.5,2.3-1.3c1.9-3.6,1.4-8.1,0.2-12
								c-0.6-1.4-1.3-2.8-2.5-3.4c-1.2-0.4-2.3-0.2-3,0.7c-2.1,2.8-1.8,7.2-1.2,10.7c0.5,2.1,1.3,3.8,2.9,4.9
								C78.08-264.93,78.58-264.83,78.98-264.73 M46.48-267.22c0.7,0,1.2-0.6,1.4-1.1c0.7-2.3,0.6-4.5,0.2-6.7
								c-0.3-1.4-0.7-2.9-1.6-3.6c-0.5-0.2-1.1-0.1-1.5,0.2c-1.4,3.1-1,7.1,0.2,10.2C45.58-267.62,45.88-267.32,46.48-267.22
								 M46.88-264.52c0.8-0.1,1.6-0.5,2.2-1.3c1.6-2.7,1.4-6.3,1-9.4c-0.5-2.6-1.3-5-3.2-6.1c-1.2-0.5-2.5-0.2-3.3,0.8
								c-1.7,2.5-1.6,6.1-1.3,9.1c0.4,2.5,1.1,4.9,2.9,6.3C45.68-264.72,46.28-264.62,46.88-264.52 M61.58-264.73h1.4l-1.3-14.4h3.1
								l-0.1-2l-4.8-0.1l1.6,16.5C61.48-264.73,61.58-264.73,61.58-264.73z M25.58-264.73h1.2l3.5-11.7h0.1l1.1,11.7h1.3l-1.5-16.4
								l-1.3-0.1l-3.5,11.7h-0.1l-1.1-11.6l-1.3-0.1C23.98-281.23,25.58-264.73,25.58-264.73z M8.38-264.73h1.4l-0.6-6.4l3.3-0.1
								c0.4,2,0.4,4.2,0.7,6.4l1.6,0.1l-1.6-16.4l-1.5-0.1l0.7,7.9h-3.4l-0.8-7.8l-1.6-0.1C6.58-281.23,8.38-264.73,8.38-264.73z
								 M-23.42-264.92h4.2l-0.1-2.1h-2.5c-0.5-1.3-0.5-3-0.7-4.4c0.7-0.4,1.7-0.1,2.5-0.2l-0.1-2l-2.4-0.1
								c-0.5-1.6-0.5-3.6-0.7-5.4l3.1-0.1l-0.1-1.8c-1.4-0.4-3.2-0.1-4.8-0.2l1.6,16.2C-23.42-265.02-23.42-264.92-23.42-264.92z
								 M-40.12-264.73h6.6l-0.2-2.1h-2.3c-0.9-4.5-1.1-9.6-1.6-14.3l-1.6-0.1l1.3,14.3l-2.3,0.1v2.1
								C-40.22-264.73-40.12-264.73-40.12-264.73z M111.58-264.23h0.1l0.9-7.5h0.1l2.6,7.4l1.5-0.2c-2-5.3-4.5-10.6-4.4-16.6
								l-1.5-0.1c0.7,5.4,0.2,11-0.9,16.5C109.98-264.73,111.58-264.23,111.58-264.23z M97.98-264.32c0.7,0,1.5-0.4,1.9-1l0.2-0.2
								l-0.7-1.8c-0.7,0.4-1.8,1-2.6,0.3c-1.4-1-1.9-2.6-2.3-4.4c-0.1-1.6-0.3-3-0.1-4.6c0.2-1.1,0.5-2,1.1-2.8
								c0.5-0.4,1.5-0.7,2.1-0.1l0.6,5.2l1.6,0.1l-0.6-7.1c-1-0.7-2.5-1.1-3.8-0.7c-1.4,0.6-2,1.9-2.5,3.4c-0.8,4-0.4,8.9,1.9,11.9
								C95.68-264.92,96.68-264.42,97.98-264.32 M-4.42-264.82c0.8-0.1,1.5-0.5,2-1.1l-0.6-1.8c-0.6,0.4-1.6,0.8-2.3,0.5
								c-1.5-0.9-2-2.5-2.4-4.2c-0.4-2.5-0.5-5.5,1-7.4c0.5-0.5,1.3-0.6,1.9-0.4c0.3,0.2,0.5,0.4,0.8,0.5l0.3-2
								c-0.9-0.7-2.2-1.2-3.4-0.7c-1.5,0.9-2.1,2.7-2.4,4.4c-0.5,3.6,0.1,8.1,2.2,10.7C-6.52-265.32-5.52-265.02-4.42-264.82
								 M-54.82-261.62h80.5h80.6h24.1v-21.8l-36.7-0.1h-80.7h-67.8l-0.1,14v7.8C-54.92-261.72-54.82-261.62-54.82-261.62z"/>
						</g>
					</g>
				</g>
			</g>
		</g>
	</g>
</g>
</svg>
